<!-- Generated by IcoMoon.io -->
<svg version="1.1" xmlns="http://www.w3.org/2000/svg" width="28" height="28" viewBox="0 0 28 28">
<title>clipboard</title>
<path d="M21 28.036h-15.75c-0.967 0-1.75-0.781-1.75-1.746v-21.085c0-0.964 0.783-1.746 1.75-1.746h4.375v1.819h-3.5c-0.483 0-0.875 0.39-0.875 0.873v19.265c0 0.484 0.392 0.873 0.875 0.873h14c0.484 0 0.875-0.389 0.875-0.873v-19.265c0-0.483-0.391-0.873-0.875-0.873h-3.5v-1.819h4.375c0.966 0 1.75 0.782 1.75 1.746v21.085c0 0.965-0.784 1.746-1.75 1.746zM9.625 10.517h9.625v0.873h-9.625v-0.873zM9.625 13.136h9.625v0.873h-9.625v-0.873zM9.625 15.757h9.625v0.873h-9.625v-0.873zM9.625 18.377h9.625v0.873h-9.625v-0.873zM19.25 24.488h-9.625v-0.872h9.625v0.872zM9.625 20.996h9.625v0.873h-9.625v-0.873zM7 10.499h0.875v0.873h-0.875v-0.873zM7 13.119h0.875v0.873h-0.875v-0.873zM7 15.738h0.875v0.873h-0.875v-0.873zM7 18.358h0.875v0.873h-0.875v-0.873zM7.875 24.471h-0.875v-0.873h0.875v0.873zM7 20.978h0.875v0.873h-0.875v-0.873zM18.375 6.205c0.484 0 0.875 0.391 0.875 0.874s0 1.691 0 1.691h-12.25c0 0 0-1.209 0-1.691s0.391-0.874 0.875-0.874h2.625c0 0 0.011-1.242 0.011-2.661 0-1.474 1.138-2.705 2.614-2.705s2.654 1.295 2.654 2.714c0 1.529-0.029 2.652-0.029 2.652h2.625zM13.125 3.459c-0.484 0-0.875 0.39-0.875 0.872s0.391 0.873 0.875 0.873 0.875-0.39 0.875-0.873c0-0.482-0.391-0.872-0.875-0.872z"></path>
</svg>
