<!-- Generated by IcoMoon.io -->
<svg version="1.1" xmlns="http://www.w3.org/2000/svg" width="28" height="28" viewBox="0 0 28 28">
<title>shopping-cart</title>
<path d="M12.833 24.5c0 1.289-1.045 2.333-2.333 2.333s-2.333-1.045-2.333-2.333c0-1.289 1.045-2.333 2.333-2.333s2.333 1.045 2.333 2.333z"></path>
<path d="M25.667 24.5c0 1.289-1.045 2.333-2.333 2.333s-2.333-1.045-2.333-2.333c0-1.289 1.045-2.333 2.333-2.333s2.333 1.045 2.333 2.333z"></path>
<path d="M27.767 6.3c-0.233-0.35-0.583-0.467-0.933-0.467h-18.9l-0.933-4.9c-0.117-0.583-0.583-0.933-1.167-0.933h-4.667c-0.7 0-1.167 0.467-1.167 1.167s0.467 1.167 1.167 1.167h3.733l0.933 4.9c0 0 0 0.117 0 0.117l1.983 9.683c0.35 1.633 1.75 2.8 3.383 2.8 0 0 0 0 0.117 0h11.317c1.75 0 3.15-1.167 3.5-2.8l1.867-9.8c0-0.35 0-0.7-0.233-0.933zM23.8 16.567c-0.117 0.583-0.583 0.933-1.167 0.933h-11.317c-0.583 0-1.050-0.35-1.167-0.933l-1.75-8.4h17.033l-1.633 8.4z"></path>
</svg>
