<!-- Generated by IcoMoon.io -->
<svg version="1.1" xmlns="http://www.w3.org/2000/svg" width="28" height="28" viewBox="0 0 28 28">
<title>ungroup</title>
<path d="M10.5 12.688c0 0.722-0.591 1.313-1.313 1.313h-2.625c-0.722 0-1.313-0.591-1.313-1.313v-2.625c0-0.722 0.591-1.313 1.313-1.313h2.625c0.722 0 1.313 0.591 1.313 1.313v2.625z"></path>
<path d="M19.25 12.688c0 0.722-0.591 1.313-1.313 1.313h-2.625c-0.722 0-1.313-0.591-1.313-1.313v-2.625c0-0.722 0.591-1.313 1.313-1.313h2.625c0.722 0 1.313 0.591 1.313 1.313v2.625z"></path>
<path d="M10.5 21.438c0 0.722-0.591 1.313-1.313 1.313h-2.625c-0.722 0-1.313-0.591-1.313-1.313v-2.625c0-0.722 0.591-1.313 1.313-1.313h2.625c0.722 0 1.313 0.591 1.313 1.313v2.625z"></path>
<path d="M19.25 21.438c0 0.722-0.591 1.313-1.313 1.313h-2.625c-0.722 0-1.313-0.591-1.313-1.313v-2.625c0-0.722 0.591-1.313 1.313-1.313h2.625c0.722 0 1.313 0.591 1.313 1.313v2.625z"></path>
<path d="M24.94 4.375l3.060-3.060v-1.315h-1.315l-3.060 3.060-3.060-3.060h-1.315v1.315l3.060 3.060-3.060 3.060v1.315h1.315l3.060-3.060 3.060 3.060h1.315v-1.315z"></path>
<path d="M0 21h1.75v3.5h-1.75v-3.5z"></path>
<path d="M0 15.75h1.75v3.5h-1.75v-3.5z"></path>
<path d="M22.75 12.25h1.75v3.5h-1.75v-3.5z"></path>
<path d="M22.75 22.75h1.75v3.5h-1.75v-3.5z"></path>
<path d="M22.75 17.5h1.75v3.5h-1.75v-3.5z"></path>
<path d="M0 10.5h1.75v3.5h-1.75v-3.5z"></path>
<path d="M0 5.25h1.75v3.5h-1.75v-3.5z"></path>
<path d="M14 3.5h3.5v1.75h-3.5v-1.75z"></path>
<path d="M8.75 3.5h3.5v1.75h-3.5v-1.75z"></path>
<path d="M3.5 3.5h3.5v1.75h-3.5v-1.75z"></path>
<path d="M12.25 26.25h3.5v1.75h-3.5v-1.75z"></path>
<path d="M17.5 26.25h3.5v1.75h-3.5v-1.75z"></path>
<path d="M7 26.25h3.5v1.75h-3.5v-1.75z"></path>
<path d="M1.75 26.25h3.5v1.75h-3.5v-1.75z"></path>
</svg>
