<svg aria-hidden="true" style="position: absolute; width: 0; height: 0; overflow: hidden;" version="1.1" xmlns="http://www.w3.org/2000/svg" xmlns:xlink="http://www.w3.org/1999/xlink">
<defs>
<symbol id="icon-shopping-cart" viewBox="0 0 28 28">
<title>shopping-cart</title>
<path d="M12.833 24.5c0 1.289-1.045 2.333-2.333 2.333s-2.333-1.045-2.333-2.333c0-1.289 1.045-2.333 2.333-2.333s2.333 1.045 2.333 2.333z"></path>
<path d="M25.667 24.5c0 1.289-1.045 2.333-2.333 2.333s-2.333-1.045-2.333-2.333c0-1.289 1.045-2.333 2.333-2.333s2.333 1.045 2.333 2.333z"></path>
<path d="M27.767 6.3c-0.233-0.35-0.583-0.467-0.933-0.467h-18.9l-0.933-4.9c-0.117-0.583-0.583-0.933-1.167-0.933h-4.667c-0.7 0-1.167 0.467-1.167 1.167s0.467 1.167 1.167 1.167h3.733l0.933 4.9c0 0 0 0.117 0 0.117l1.983 9.683c0.35 1.633 1.75 2.8 3.383 2.8 0 0 0 0 0.117 0h11.317c1.75 0 3.15-1.167 3.5-2.8l1.867-9.8c0-0.35 0-0.7-0.233-0.933zM23.8 16.567c-0.117 0.583-0.583 0.933-1.167 0.933h-11.317c-0.583 0-1.050-0.35-1.167-0.933l-1.75-8.4h17.033l-1.633 8.4z"></path>
</symbol>
<symbol id="icon-clipboard" viewBox="0 0 28 28">
<title>clipboard</title>
<path d="M21 28.036h-15.75c-0.967 0-1.75-0.781-1.75-1.746v-21.085c0-0.964 0.783-1.746 1.75-1.746h4.375v1.819h-3.5c-0.483 0-0.875 0.39-0.875 0.873v19.265c0 0.484 0.392 0.873 0.875 0.873h14c0.484 0 0.875-0.389 0.875-0.873v-19.265c0-0.483-0.391-0.873-0.875-0.873h-3.5v-1.819h4.375c0.966 0 1.75 0.782 1.75 1.746v21.085c0 0.965-0.784 1.746-1.75 1.746zM9.625 10.517h9.625v0.873h-9.625v-0.873zM9.625 13.136h9.625v0.873h-9.625v-0.873zM9.625 15.757h9.625v0.873h-9.625v-0.873zM9.625 18.377h9.625v0.873h-9.625v-0.873zM19.25 24.488h-9.625v-0.872h9.625v0.872zM9.625 20.996h9.625v0.873h-9.625v-0.873zM7 10.499h0.875v0.873h-0.875v-0.873zM7 13.119h0.875v0.873h-0.875v-0.873zM7 15.738h0.875v0.873h-0.875v-0.873zM7 18.358h0.875v0.873h-0.875v-0.873zM7.875 24.471h-0.875v-0.873h0.875v0.873zM7 20.978h0.875v0.873h-0.875v-0.873zM18.375 6.205c0.484 0 0.875 0.391 0.875 0.874s0 1.691 0 1.691h-12.25c0 0 0-1.209 0-1.691s0.391-0.874 0.875-0.874h2.625c0 0 0.011-1.242 0.011-2.661 0-1.474 1.138-2.705 2.614-2.705s2.654 1.295 2.654 2.714c0 1.529-0.029 2.652-0.029 2.652h2.625zM13.125 3.459c-0.484 0-0.875 0.39-0.875 0.872s0.391 0.873 0.875 0.873 0.875-0.39 0.875-0.873c0-0.482-0.391-0.872-0.875-0.872z"></path>
</symbol>
<symbol id="icon-ungroup" viewBox="0 0 28 28">
<title>ungroup</title>
<path d="M10.5 12.688c0 0.722-0.591 1.313-1.313 1.313h-2.625c-0.722 0-1.313-0.591-1.313-1.313v-2.625c0-0.722 0.591-1.313 1.313-1.313h2.625c0.722 0 1.313 0.591 1.313 1.313v2.625z"></path>
<path d="M19.25 12.688c0 0.722-0.591 1.313-1.313 1.313h-2.625c-0.722 0-1.313-0.591-1.313-1.313v-2.625c0-0.722 0.591-1.313 1.313-1.313h2.625c0.722 0 1.313 0.591 1.313 1.313v2.625z"></path>
<path d="M10.5 21.438c0 0.722-0.591 1.313-1.313 1.313h-2.625c-0.722 0-1.313-0.591-1.313-1.313v-2.625c0-0.722 0.591-1.313 1.313-1.313h2.625c0.722 0 1.313 0.591 1.313 1.313v2.625z"></path>
<path d="M19.25 21.438c0 0.722-0.591 1.313-1.313 1.313h-2.625c-0.722 0-1.313-0.591-1.313-1.313v-2.625c0-0.722 0.591-1.313 1.313-1.313h2.625c0.722 0 1.313 0.591 1.313 1.313v2.625z"></path>
<path d="M24.94 4.375l3.060-3.060v-1.315h-1.315l-3.060 3.060-3.060-3.060h-1.315v1.315l3.060 3.060-3.060 3.060v1.315h1.315l3.060-3.060 3.060 3.060h1.315v-1.315z"></path>
<path d="M0 21h1.75v3.5h-1.75v-3.5z"></path>
<path d="M0 15.75h1.75v3.5h-1.75v-3.5z"></path>
<path d="M22.75 12.25h1.75v3.5h-1.75v-3.5z"></path>
<path d="M22.75 22.75h1.75v3.5h-1.75v-3.5z"></path>
<path d="M22.75 17.5h1.75v3.5h-1.75v-3.5z"></path>
<path d="M0 10.5h1.75v3.5h-1.75v-3.5z"></path>
<path d="M0 5.25h1.75v3.5h-1.75v-3.5z"></path>
<path d="M14 3.5h3.5v1.75h-3.5v-1.75z"></path>
<path d="M8.75 3.5h3.5v1.75h-3.5v-1.75z"></path>
<path d="M3.5 3.5h3.5v1.75h-3.5v-1.75z"></path>
<path d="M12.25 26.25h3.5v1.75h-3.5v-1.75z"></path>
<path d="M17.5 26.25h3.5v1.75h-3.5v-1.75z"></path>
<path d="M7 26.25h3.5v1.75h-3.5v-1.75z"></path>
<path d="M1.75 26.25h3.5v1.75h-3.5v-1.75z"></path>
</symbol>
</defs>
</svg>
